<svg width="173" height="33" viewBox="0 0 173 33" fill="none" xmlns="http://www.w3.org/2000/svg">
<path d="M8.5 16.5C28 20.5 92.2735 33.1614 151.5 20C160.5 18 162.5 16.5 167.5 13" stroke="#D1FF4F" stroke-width="11" stroke-linecap="round"/>
<path d="M20.957 21.8086C21.9206 21.8086 22.9948 21.3724 24.1797 20.5C25.2344 19.7057 26.1589 18.7161 26.9531 17.5312C27.5521 17.4792 27.8385 17.7331 27.8125 18.293C27.7995 18.7357 27.526 19.4062 26.9922 20.3047C26.4714 21.2031 25.957 21.9844 25.4492 22.6484C24.9414 23.3125 24.375 23.9635 23.75 24.6016C23.125 25.2396 22.4609 25.8125 21.7578 26.3203C20.1823 27.4401 18.6458 28 17.1484 28C15.2344 28 13.9583 27.4271 13.3203 26.2812C13.099 25.8906 12.9948 25.4219 13.0078 24.875C11.901 26.2161 10.3255 27.1536 8.28125 27.6875C7.59115 27.8698 6.84896 27.9609 6.05469 27.9609C5.26042 27.9609 4.53125 27.8372 3.86719 27.5898C3.21615 27.3294 2.65625 26.9714 2.1875 26.5156C1.22396 25.5651 0.742188 24.2956 0.742188 22.707C0.742188 20.9102 1.50391 19.0677 3.02734 17.1797C4.52474 15.3047 6.44531 13.7682 8.78906 12.5703C11.2891 11.3073 13.8411 10.6758 16.4453 10.6758C17.6042 10.6758 18.1185 11.1901 17.9883 12.2188C14.9935 12.2188 12.3828 13.026 10.1562 14.6406C9.17969 15.3568 8.41146 16.1445 7.85156 17.0039C7.30469 17.8633 7.03125 18.6966 7.03125 19.5039C7.03125 21.0143 7.66927 21.7695 8.94531 21.7695C10.7812 21.7695 12.6302 20.6237 14.4922 18.332C15.1432 17.5247 15.8984 16.3984 16.7578 14.9531C17.6302 13.4948 18.3398 12.3099 18.8867 11.3984C19.4466 10.474 20.013 9.53646 20.5859 8.58594C21.1719 7.6224 21.7318 6.70443 22.2656 5.83203C23.5807 3.68359 24.3945 2.39453 24.707 1.96484C25.1758 1.3138 25.7292 0.988281 26.3672 0.988281C27.1094 0.988281 27.6497 1.25521 27.9883 1.78906C26.556 4.04167 25.2214 6.43099 23.9844 8.95703C22.7474 11.4831 21.888 13.3255 21.4062 14.4844C20.3125 17.1146 19.7656 18.9961 19.7656 20.1289C19.7656 21.2487 20.1628 21.8086 20.957 21.8086ZM33.3677 16.2812C31.8052 16.2031 30.477 16.0404 29.3833 15.793C28.0421 18.1237 26.727 20.2005 25.438 22.0234C25.2687 22.2969 24.8846 22.3685 24.2856 22.2383C23.2179 22.0039 22.6059 21.7305 22.4497 21.418C24.7674 19.7904 26.395 17.7005 27.3325 15.1484C25.9653 14.5234 25.2817 13.638 25.2817 12.4922C25.2817 11.7891 25.744 10.8906 26.6684 9.79688C27.5408 8.72917 28.1854 8.19531 28.602 8.19531C29.8781 8.19531 30.8481 8.52083 31.5122 9.17188C31.7726 9.41927 31.9028 9.7513 31.9028 10.168C31.9028 10.5716 31.6815 11.2552 31.2388 12.2188C33.244 13.1953 35.77 13.7682 38.8169 13.9375C38.7257 14.8359 38.3481 15.5651 37.6841 16.125C37.5018 16.2943 37.3195 16.3789 37.1372 16.3789C36.2127 17.2122 35.5617 18.1172 35.1841 19.0938C35.0669 19.4062 35.0083 19.7057 35.0083 19.9922C35.0083 21.2031 35.7309 21.8086 37.1763 21.8086C38.1528 21.8086 39.2335 21.3724 40.4184 20.5C41.4731 19.7057 42.3976 18.7161 43.1919 17.5312C43.7778 17.4922 44.0708 17.7331 44.0708 18.2539C44.0708 18.6966 43.7973 19.3737 43.2505 20.2852C42.7166 21.1966 42.1958 21.9844 41.688 22.6484C41.1802 23.3125 40.6138 23.9635 39.9888 24.6016C39.3638 25.2396 38.6997 25.8125 37.9966 26.3203C36.421 27.4401 34.8781 28 33.3677 28C30.8026 28 29.0838 27.2057 28.2114 25.6172C27.9119 25.0833 27.7622 24.4648 27.7622 23.7617C27.7622 23.0456 27.9054 22.3424 28.1919 21.6523C28.4914 20.9622 28.895 20.2917 29.4028 19.6406C30.4445 18.2865 31.7661 17.1667 33.3677 16.2812ZM51.7744 24.875C49.9905 26.9583 47.816 28 45.2509 28C43.6233 28 42.3213 27.5117 41.3447 26.5352C40.3811 25.5716 39.8994 24.3021 39.8994 22.7266C39.8994 20.7344 40.6806 18.8008 42.2431 16.9258C43.7535 15.1029 45.7327 13.6185 48.1806 12.4727C50.7197 11.2878 53.3434 10.6953 56.0517 10.6953C57.0804 10.6953 57.816 10.8581 58.2588 11.1836C58.6103 10.7669 58.9228 10.526 59.1963 10.4609C59.4827 10.3828 59.7041 10.3438 59.8603 10.3438C60.3551 10.3438 60.8824 10.4154 61.4423 10.5586C61.3903 10.7279 61.2796 11.0208 61.1103 11.4375C60.941 11.8411 60.7522 12.3229 60.5439 12.8828C60.3356 13.4427 60.1142 14.0547 59.8798 14.7188C59.0335 17.0885 58.6103 18.8659 58.6103 20.0508C58.6103 21.2227 58.9814 21.8086 59.7236 21.8086C60.6871 21.8086 61.7614 21.3724 62.9463 20.5C64.0009 19.7057 64.9254 18.7161 65.7197 17.5312C66.3056 17.4922 66.5986 17.7331 66.5986 18.2539C66.5986 18.6966 66.3252 19.3737 65.7783 20.2852C65.2444 21.1966 64.7236 21.9844 64.2158 22.6484C63.708 23.3125 63.1416 23.9635 62.5166 24.6016C61.8916 25.2396 61.2275 25.8125 60.5244 26.3203C58.9489 27.4401 57.4124 28 55.915 28C54.014 28 52.7379 27.4271 52.0869 26.2812C51.8785 25.9297 51.7744 25.6237 51.7744 25.3633C51.7744 25.0898 51.7744 24.9271 51.7744 24.875ZM46.1884 19.543C46.1884 21.0534 46.8199 21.8086 48.083 21.8086C49.4762 21.8086 51.1168 20.6823 53.0048 18.4297C54.0074 17.2318 54.8798 16.0859 55.622 14.9922C56.3772 13.8984 56.9502 13.0651 57.3408 12.4922C54.0856 12.5182 51.3838 13.2604 49.2353 14.7188C47.2041 16.099 46.1884 17.707 46.1884 19.543ZM76.2358 23.1172C72.8113 26.6719 69.9011 28.4492 67.5053 28.4492C66.3725 28.4492 65.435 27.7331 64.6928 26.3008C64.0418 25.0117 63.7163 23.6055 63.7163 22.082C63.7163 20.2721 64.4845 18.2214 66.0209 15.9297C67.3491 13.9375 68.7944 12.362 70.3569 11.2031C70.8126 10.8646 71.2358 10.6953 71.6264 10.6953L71.6459 10.6758C72.0366 10.6758 72.4858 10.8451 72.9936 11.1836C71.6264 12.8633 70.7605 15.0443 70.3959 17.7266C70.2918 18.4167 70.2397 19.0156 70.2397 19.5234C70.2397 21.0469 70.5913 21.8086 71.2944 21.8086C71.8282 21.8086 72.5248 21.5742 73.3842 21.1055C74.2436 20.6237 75.1355 19.9596 76.06 19.1133C76.2683 16.9779 76.672 15.0182 77.2709 13.2344C77.4532 12.7005 77.6225 12.3555 77.7788 12.1992C77.948 12.0299 78.1498 11.8672 78.3842 11.7109C78.6316 11.5547 78.8855 11.4115 79.1459 11.2812C79.7709 10.9557 80.2202 10.793 80.4936 10.793C80.767 10.793 80.9949 10.8711 81.1772 11.0273C81.3595 11.1706 81.5222 11.3529 81.6655 11.5742C81.978 12.056 82.1342 12.5182 82.1342 12.9609C82.1342 14.0807 81.6199 15.5586 80.5913 17.3945C80.8386 19.3997 81.3204 20.7604 82.0366 21.4766C82.2579 21.6979 82.5314 21.8086 82.8569 21.8086C83.56 21.8086 84.5235 21.1966 85.7475 19.9727C85.7345 19.8815 85.728 19.7969 85.728 19.7188V19.4258C85.728 18.2539 85.8256 17.0755 86.0209 15.8906C86.2944 14.25 86.4962 13.2995 86.6264 13.0391C86.7696 12.7656 86.9519 12.4792 87.1733 12.1797C87.3946 11.8672 87.6551 11.5677 87.9545 11.2812C88.6707 10.6172 89.2827 10.2852 89.7905 10.2852C90.2983 10.2852 90.6498 10.3958 90.8452 10.6172C91.0535 10.8385 91.2163 11.138 91.3334 11.5156C91.5157 12.1536 91.6069 13.1302 91.6069 14.4453C91.6069 15.7474 91.2553 17.2122 90.5522 18.8398C91.4506 20.4154 92.3295 21.2031 93.1889 21.2031C94.2566 21.2031 95.461 20.4674 96.8022 18.9961C97.2058 18.5534 97.5834 18.0651 97.935 17.5312C98.5209 17.4922 98.8139 17.7331 98.8139 18.2539C98.8139 19.0091 98.1824 20.2526 96.9194 21.9844C95.6954 23.651 94.4454 24.7643 93.1694 25.3242C92.7397 25.5195 92.323 25.6172 91.9194 25.6172C90.0704 25.6172 88.573 25.0573 87.4272 23.9375C85.7084 26.0469 83.9376 27.4401 82.1147 28.1172C81.5027 28.3385 80.8972 28.4492 80.2983 28.4492C79.6993 28.4492 79.172 28.2995 78.7163 28C78.2605 27.7005 77.8699 27.3034 77.5444 26.8086C76.9324 25.9102 76.4962 24.6797 76.2358 23.1172ZM110.58 0.851562C112.025 0.851562 112.748 2.06901 112.748 4.50391C112.748 7.72005 110.795 11.1185 106.889 14.6992C105.404 16.0664 103.842 17.2448 102.201 18.2344C102.37 20.2396 103.106 21.3854 104.408 21.6719C104.825 21.763 105.313 21.8086 105.873 21.8086C106.446 21.8086 107.058 21.737 107.709 21.5938C108.373 21.4375 109.031 21.1901 109.682 20.8516C111.127 20.1094 112.331 19.0026 113.295 17.5312C113.881 17.4922 114.174 17.7331 114.174 18.2539C114.174 18.4622 114.031 18.8984 113.744 19.5625C113.471 20.2266 112.956 21.0924 112.201 22.1602C111.446 23.2148 110.541 24.1719 109.486 25.0312C107.064 27.0104 104.376 28 101.42 28C98.0084 28 95.9446 26.5417 95.2284 23.625C94.9941 22.7135 94.8769 21.6979 94.8769 20.5781C94.8769 19.4453 95.0461 18.306 95.3847 17.1602C95.7232 16.0143 96.179 14.8815 96.7519 13.7617C97.3248 12.6289 97.9889 11.5221 98.7441 10.4414C99.5123 9.36068 100.32 8.34505 101.166 7.39453C102.025 6.44401 102.898 5.57161 103.783 4.77734C104.669 3.97005 105.528 3.27344 106.361 2.6875C108.145 1.46354 109.551 0.851562 110.58 0.851562ZM102.201 15.8711C104.389 14.5039 106.231 12.8633 107.728 10.9492C109.252 9.00911 110.014 7.29688 110.014 5.8125C110.014 5.07031 109.857 4.53646 109.545 4.21094C109.441 4.09375 109.258 4.03516 108.998 4.03516C108.738 4.03516 108.373 4.20443 107.904 4.54297C107.435 4.86849 106.954 5.31771 106.459 5.89062C105.964 6.46354 105.476 7.14062 104.994 7.92188C104.525 8.6901 104.096 9.51042 103.705 10.3828C102.846 12.349 102.344 14.1784 102.201 15.8711ZM117.737 20.3242C118.492 21.6784 120.204 22.3555 122.873 22.3555C124.54 22.3555 126.109 21.9518 127.58 21.1445C129.065 20.3242 130.334 19.1198 131.389 17.5312C131.975 17.4922 132.268 17.7331 132.268 18.2539C132.268 18.8398 131.916 19.6862 131.213 20.793C130.523 21.8867 129.872 22.7721 129.26 23.4492C128.661 24.1263 127.984 24.7578 127.229 25.3438C126.487 25.9167 125.686 26.4115 124.827 26.8281C122.965 27.7396 121.005 28.1953 118.948 28.1953C114.807 28.1953 112.118 27.0495 110.881 24.7578C110.439 23.9245 110.217 22.974 110.217 21.9062C110.217 20.8255 110.399 19.8359 110.764 18.9375C111.142 18.0391 111.656 17.1862 112.307 16.3789C112.958 15.5586 113.733 14.8034 114.631 14.1133C115.53 13.4232 116.506 12.8307 117.561 12.3359C119.801 11.2552 122.086 10.7148 124.416 10.7148C126.096 10.7148 127.248 11.2422 127.873 12.2969C128.095 12.6615 128.205 13.1497 128.205 13.7617C128.205 14.3607 128.049 14.9531 127.737 15.5391C127.437 16.125 127.027 16.6589 126.506 17.1406C125.985 17.6094 125.38 18.026 124.69 18.3906C124 18.7422 123.264 19.0482 122.483 19.3086C121.103 19.7773 119.521 20.1159 117.737 20.3242ZM117.463 18.5078C119.13 18.3125 120.562 17.8503 121.76 17.1211C123.023 16.3398 123.655 15.4284 123.655 14.3867C123.655 13.332 123.173 12.8047 122.209 12.8047C120.959 12.8047 119.872 13.4036 118.948 14.6016C118.062 15.7474 117.567 17.0495 117.463 18.5078ZM144.991 11.8672C144.275 11.8151 143.578 11.8281 142.901 11.9062C142.901 12.0365 142.901 12.2643 142.901 12.5898C142.901 12.9154 142.947 13.4036 143.038 14.0547C143.129 14.7057 143.24 15.4219 143.37 16.2031C143.735 18.4167 143.917 19.9141 143.917 20.6953C143.917 21.4766 143.865 22.1146 143.761 22.6094C145.727 22.1146 147.53 20.9818 149.171 19.2109C149.666 18.6771 150.108 18.1172 150.499 17.5312C150.877 17.5052 151.117 17.5768 151.222 17.7461C151.326 17.9023 151.378 18.0716 151.378 18.2539C151.378 18.4362 151.228 18.8789 150.929 19.582C150.629 20.2852 150.056 21.1706 149.21 22.2383C148.377 23.306 147.335 24.2695 146.085 25.1289C143.259 27.069 139.861 28.0521 135.89 28.0781C135.525 28.1042 134.998 28.1172 134.308 28.1172C133.617 28.1172 132.856 27.9284 132.022 27.5508C131.189 27.1602 130.479 26.6328 129.893 25.9688C128.683 24.6016 128.077 22.8503 128.077 20.7148C128.077 19.8294 128.748 18.8333 130.089 17.7266C130.466 17.4141 130.844 17.1406 131.222 16.9062C132.524 14.9531 134.373 13.2604 136.768 11.8281C139.177 10.3958 141.43 9.67969 143.526 9.67969C144.281 9.67969 144.802 9.88802 145.089 10.3047C145.401 10.7474 145.369 11.2682 144.991 11.8672ZM135.167 20.9492C135.453 21.1706 135.772 21.2812 136.124 21.2812C136.475 21.2812 136.821 21.1445 137.159 20.8711C137.498 20.5977 137.804 20.2331 138.077 19.7773C138.363 19.3216 138.611 18.7943 138.819 18.1953C139.041 17.5964 139.236 16.9714 139.405 16.3203C139.692 15.2266 139.978 13.931 140.265 12.4336C138.064 13.1107 136.117 14.1849 134.425 15.6562C133.917 16.112 133.474 16.5742 133.097 17.043C133.552 18.918 134.242 20.2201 135.167 20.9492ZM164.12 11.8672C163.404 11.8151 162.708 11.8281 162.031 11.9062C162.031 12.0365 162.031 12.2643 162.031 12.5898C162.031 12.9154 162.076 13.4036 162.167 14.0547C162.258 14.7057 162.369 15.4219 162.499 16.2031C162.864 18.4167 163.046 19.9141 163.046 20.6953C163.046 21.4766 162.994 22.1146 162.89 22.6094C164.856 22.1146 166.66 20.9818 168.3 19.2109C168.795 18.6771 169.238 18.1172 169.628 17.5312C170.006 17.5052 170.247 17.5768 170.351 17.7461C170.455 17.9023 170.507 18.0716 170.507 18.2539C170.507 18.4362 170.357 18.8789 170.058 19.582C169.758 20.2852 169.186 21.1706 168.339 22.2383C167.506 23.306 166.464 24.2695 165.214 25.1289C162.389 27.069 158.99 28.0521 155.019 28.0781C154.654 28.1042 154.127 28.1172 153.437 28.1172C152.747 28.1172 151.985 27.9284 151.152 27.5508C150.318 27.1602 149.609 26.6328 149.023 25.9688C147.812 24.6016 147.206 22.8503 147.206 20.7148C147.206 19.8294 147.877 18.8333 149.218 17.7266C149.596 17.4141 149.973 17.1406 150.351 16.9062C151.653 14.9531 153.502 13.2604 155.898 11.8281C158.307 10.3958 160.559 9.67969 162.656 9.67969C163.411 9.67969 163.932 9.88802 164.218 10.3047C164.531 10.7474 164.498 11.2682 164.12 11.8672ZM154.296 20.9492C154.583 21.1706 154.902 21.2812 155.253 21.2812C155.605 21.2812 155.95 21.1445 156.288 20.8711C156.627 20.5977 156.933 20.2331 157.206 19.7773C157.493 19.3216 157.74 18.7943 157.949 18.1953C158.17 17.5964 158.365 16.9714 158.535 16.3203C158.821 15.2266 159.107 13.931 159.394 12.4336C157.193 13.1107 155.247 14.1849 153.554 15.6562C153.046 16.112 152.604 16.5742 152.226 17.043C152.682 18.918 153.372 20.2201 154.296 20.9492Z" fill="black"/>
</svg>
